# xmcd CD database file
# Copyright (C) 1997 Ti Kan
#
# Track frame offsets:
#  150
#  20300
#  37000
#  53287
#  69987
#  85737
#  113287
#  128287
#  153650
#  168100
#  188312
#  207825
#  226537
#  241962
#
# Disc length: 3451 seconds
#
# Revision: 1
# Processed by: cddbd v1.4b41PL1 Copyright (c) Steve Scherf et al.
# Submitted via: CDWizzard Release:4.22
#
DISCID=8d0d790e
DTITLE=Jack Williams - Highway From Back Home
DYEAR=1900
DGENRE=
TTITLE0=Just Another Fool
TTITLE1=Made To Love You
TTITLE2=I'll Be Damned
TTITLE3=Turning Away
TTITLE4=Never Say Goodbye
TTITLE5=Highway From Back Home
TTITLE6=Same As Me
TTITLE7=Suddenly The Tide
TTITLE8=The Blind Leading The Blind
TTITLE9=Solitaire
TTITLE10=A Full Moon On
TTITLE11=Hand Me Down
TTITLE12=Make Me A Believer
TTITLE13=Easy Street
EXTD=
EXTT0=
EXTT1=
EXTT2=
EXTT3=
EXTT4=
EXTT5=
EXTT6=
EXTT7=
EXTT8=
EXTT9=
EXTT10=
EXTT11=
EXTT12=
EXTT13=
PLAYORDER=
